HIERARCHY
ROOT pelvis
{
  OFFSET 0 100 0
  CHANNELS 6 Xposition Yposition Zposition Zrotation Xrotation Yrotation
  JOINT pelvis_right_femur
  {
    OFFSET -10.78128 -3.44521 -0.5502486
    CHANNELS 3 Zrotation Xrotation Yrotation
    JOINT right_femur_tibia
    {
      OFFSET -0.8047443 -44.0398 -0.1307829
      CHANNELS 3 Zrotation Xrotation Yrotation
      JOINT right_tibia_foot
      {
        OFFSET 3.006224 -47.83518 -5
        CHANNELS 3 Zrotation Xrotation Yrotation
        End Site
        {
          OFFSET 0 -5 15
        }
      }
    }
  }
  JOINT pelvis_left_femur
  {
    OFFSET 10.78128 -3.44521 -0.5502486
    CHANNELS 3 Zrotation Xrotation Yrotation
    JOINT left_femur_tibia
    {
      OFFSET 0.8047443 -44.0398 -0.1307829
      CHANNELS 3 Zrotation Xrotation Yrotation
      JOINT left_tibia_foot
      {
        OFFSET -4.370144 -48.10324 -4.275266
        CHANNELS 3 Zrotation Xrotation Yrotation
        End Site
        {
          OFFSET 0 -5 15
        }
      }
    }
  }
  JOINT pelvis_spine1
  {
    OFFSET 0 6.468898 -3.129235
    CHANNELS 3 Zrotation Xrotation Yrotation
    JOINT spine1
    {
      OFFSET 0 23.15396 4.99043
      CHANNELS 3 Zrotation Xrotation Yrotation
      JOINT spine2
      {
        OFFSET 0 20.79997 -5.064912
        CHANNELS 3 Zrotation Xrotation Yrotation
        JOINT neck
        {
          OFFSET 0 14.38658 9.616178
          CHANNELS 3 Zrotation Xrotation Yrotation
          End Site
          {
            OFFSET 0 20 0
          }
        }
      }
      JOINT right_manubrium
      {
        OFFSET -5.722621 16.35077 3.967754
        CHANNELS 3 Zrotation Xrotation Yrotation
        JOINT right_clavicle
        {
          OFFSET -13.16364 1.694482 -4.693211
          CHANNELS 3 Zrotation Xrotation Yrotation
          JOINT right_humerus
          {
            OFFSET -28.5034 -0.3100689 -2.792744
            CHANNELS 3 Zrotation Xrotation Yrotation
            JOINT right_radius
            {
              OFFSET -25.15693 0.02248979 -1.271978
              CHANNELS 3 Zrotation Xrotation Yrotation
              End Site
              {
                OFFSET -15 0 0
              }
            }
          }
        }
      }
      JOINT left_manubrium
      {
        OFFSET 5.722621 16.35077 3.967754
        CHANNELS 3 Zrotation Xrotation Yrotation
        JOINT left_clavicle
        {
          OFFSET 13.16364 1.694482 -4.693211
          CHANNELS 3 Zrotation Xrotation Yrotation
          JOINT left_humerus
          {
            OFFSET 29.39168 -1.063119 -2.237045
            CHANNELS 3 Zrotation Xrotation Yrotation
            JOINT left_radius
            {
              OFFSET 24.59957 -0.9528479 0.9047498
              CHANNELS 3 Zrotation Xrotation Yrotation
              End Site
              {
                OFFSET 15 -0 -0
              }
            }
          }
        }
      }
    }
  }
}
MOTION
Frames: 7
Frame Time: 0.0416666666667
0 103.5113 0 2.522092 0.2802883 0.1282504 3.178887 -15.01614 11.33619 -0 37.21039 -0 -4.549438 -17.79537 -3.355077 -8.946592 8.776481 -21.68026 -0 5.173638 -0 22.16974 -9.674254 29.83564 -1.578796 -1.697295 6.341008 1.766667 11.12559 -6.566256 1.956842 21.53619 4.988164 2.559535 -25.09184 8.659027 4.856277 -20.35463 10.83166 86.74194 36.8654 -17.90231 -0 0 14.6559 -8.441782 8.590389 4.28667 5.5668 -20.42554 -2.465433 -91.81982 21.83434 21.8351 0 0 -15.98981 14.95487 13.25002 -2.010864
0.3679453 103.5681 1.581918 2.021782 1.172433 0.2032682 4.300568 -17.30632 12.33936 -0 37.88026 -0 -4.613232 -16.856 -3.443763 -8.742655 8.385835 -21.3634 -0 5.601952 -0 23.04827 -9.731994 30.29234 -1.560125 -1.510233 6.077744 1.943222 11.01567 -6.723755 1.855768 21.36517 5.245057 2.733483 -25.33135 8.655466 4.885005 -20.0153 10.97889 86.74968 36.5006 -18.0243 -0 0 14.29895 -8.690881 8.644974 4.525755 5.582178 -20.44535 -2.3614 -91.55037 21.52134 21.2755 0 0 -16.06629 14.61703 12.99359 -1.993554
0.630921 103.3688 3.524439 1.267912 0.4694039 0.3196642 4.495177 -20.42245 8.139018 -0 33.82348 -0 -6.29035 -13.96611 -2.034075 -7.799907 10.53727 -21.13831 -0 6.170754 -0 16.80092 -14.56624 27.97916 -1.539595 -1.663273 6.061922 1.988793 10.89516 -6.780459 1.878814 21.39425 5.26892 2.737473 -25.3172 8.707564 5.055772 -19.88031 10.8896 86.72405 36.53098 -18.4078 -0 0 14.22771 -8.344607 8.804933 4.363606 5.67304 -20.54165 -2.326193 -91.90551 22.29624 21.48468 0 0 -16.39457 14.12199 13.39613 -1.070961
0.8508937 103.101 5.760931 0.6479841 0.6457638 0.3974806 5.091636 -23.39258 6.699479 -0 31.46717 -0 -7.068422 -11.77748 -1.459598 -7.206063 11.32476 -20.55011 -0 6.853103 -0 14.18759 -16.8428 26.6128 -1.537754 -1.768132 5.962113 2.082008 10.77201 -6.890274 1.873152 21.36494 5.359721 2.779934 -25.38493 8.770741 5.202006 -19.7061 10.86265 86.73608 36.44585 -18.78584 -0 0 14.12111 -8.100013 8.924641 4.246925 5.769352 -20.62785 -2.248826 -92.14378 22.79472 21.52199 0 0 -16.59759 13.68377 13.69603 -0.4281058
1.042582 102.7059 8.412934 0.09988964 0.7953978 0.4940043 5.554427 -26.49364 4.953099 -0 28.12717 -0 -7.98034 -9.188916 -0.7148931 -6.660331 12.11063 -19.51729 -0 8.004299 -0 12.03542 -18.75927 24.84958 -1.535858 -1.898552 5.842936 2.192531 10.61475 -7.020174 1.866 21.33612 5.46511 2.823316 -25.45887 8.844555 5.367979 -19.50914 10.82822 86.74466 36.31657 -19.2308 -0 0 14.01887 -7.801891 9.055735 4.11663 5.875918 -20.7187 -2.158267 -92.45879 23.45041 21.60939 0 0 -16.84712 13.081 14.0672 0.4399076
1.218941 102.2373 11.51592 -0.3652455 1.113447 0.6365787 5.987088 -29.24783 3.628194 -0 24.8189 -0 -8.709659 -6.768674 -0.09222902 -6.229077 12.73501 -18.37542 -0 9.529146 -0 10.36937 -20.06805 23.04851 -1.537812 -1.995459 5.71336 2.305408 10.46256 -7.145537 1.848443 21.29938 5.576173 2.86845 -25.54237 8.9062 5.501397 -19.32467 10.81536 86.74494 36.14847 -19.60251 -0 0 13.92629 -7.573814 9.155201 4.040677 5.95748 -20.78192 -2.070864 -92.71884 24.00116 21.6641 0 0 -17.04765 12.48734 14.3615 1.227119
1.386498 101.7466 15.14657 -0.7537652 1.446434 0.8508826 6.32303 -31.44865 2.364159 -0 21.35823 -0 -9.385903 -4.385496 0.4990454 -5.866629 13.33763 -17.03869 -0 11.78169 -0 8.74983 -20.81072 20.93391 -1.533113 -2.044666 5.580519 2.416455 10.31 -7.255187 1.819256 21.26211 5.691134 2.918872 -25.62517 8.944787 5.605286 -19.1369 10.81834 86.7254 35.95667 -19.89466 -0 0 13.81288 -7.423836 9.238026 4.039412 6.002434 -20.81654 -2.003042 -92.91899 24.49245 21.68426 0 0 -17.25261 11.86118 14.56431 2.013825
